# xmcd
#
# Track frame offsets:
#	150
#	17887
#	33475
#	55675
#	75010
#	88535
#	111152
#	129940
#	146777
#	167007
#	185465
#	203312
#	227115
#	240122
#	253980
#
# Disc length: 3638 seconds
#
# Revision: 0
# Processed by: cddbd v1.5.1PL0 Copyright (c) Steve Scherf et al.
# Submitted via: dBpowerAMP V4.0
#
DISCID=b30e340f
DTITLE=Country Connection - Live As We Are
DYEAR=1900
DGENRE=Country
TTITLE0=Tell Me About It
TTITLE1=I Just Wanna Dance With You
TTITLE2=Honty Tonk Angle
TTITLE3=Black Velvet Band
TTITLE4=Mama He's Crazy
TTITLE5=Leaving Of Liverpool
TTITLE6=If You're Not In It For Love
TTITLE7=Still In Love
TTITLE8=Whiskey In The Jar
TTITLE9=Storms Never Last
TTITLE10=Wonderfull Tonight
TTITLE11=Strings Of Diamonds
TTITLE12=Cover Of The Rolling Stones
TTITLE13=Baby, Don't You Know
TTITLE14=Knocking on Heaven's Door
EXTD=
EXTT0=
EXTT1=
EXTT2=
EXTT3=
EXTT4=
EXTT5=
EXTT6=
EXTT7=
EXTT8=
EXTT9=
EXTT10=
EXTT11=
EXTT12=
EXTT13=
EXTT14=
PLAYORDER=
